HIERARCHY
ROOT Hips
{
	OFFSET 0.00000 0.00000 0.00000
	CHANNELS 6 Xposition Yposition Zposition Zrotation Yrotation Xrotation 
	JOINT RightUpLegDummy
	{
		OFFSET 0 0 0
		CHANNELS 3 Zrotation Yrotation Xrotation
		JOINT RightUpLeg
		{
			OFFSET -3.52197 -3.41223 0.04002
			CHANNELS 3 Zrotation Yrotation Xrotation
			JOINT RightLeg
			{
				OFFSET 0.00006 -17.42390 1.60435
				CHANNELS 3 Zrotation Yrotation Xrotation
				JOINT RightFoot
				{
					OFFSET 0.06154 -16.50078 -1.63900
					CHANNELS 3 Zrotation Yrotation Xrotation
					JOINT RightToes
					{
						OFFSET 0.00298 -1.73825 3.34613
						CHANNELS 3 Zrotation Yrotation Xrotation
						End Site
						{
							OFFSET 0.00480 -0.05416 3.85043
						}
					}
				}
			}
		}
	}
	JOINT SpineDummy
	{
		OFFSET 0 0 0
		CHANNELS 3 Zrotation Yrotation Xrotation
		JOINT Spine
		{
			OFFSET 0.00000 4.68130 0.00000
			CHANNELS 3 Zrotation Yrotation Xrotation
			JOINT Spine1
			{
				OFFSET -0.00000 10.10138 0.05002
				CHANNELS 3 Zrotation Yrotation Xrotation
				JOINT HEadDummy
				{
					OFFSET 0 0 0
					CHANNELS 3 Zrotation Yrotation Xrotation
					JOINT Head
					{
						OFFSET -0.00000 3.43865 0.00438
						CHANNELS 3 Zrotation Yrotation Xrotation
						End Site
						{
							OFFSET -0.11417 5.02924 0.98962
						}
					}
				}
				JOINT LeftShoulder1Dummy
				{
					OFFSET 0 0 0
					CHANNELS 3 Zrotation Yrotation Xrotation
					JOINT LeftShoulder1
					{
						OFFSET 3.53937 -0.14262 -0.08662
						CHANNELS 3 Zrotation Yrotation Xrotation
						JOINT LeftArm
						{
							OFFSET 4.04833 -0.00133 0.12681
							CHANNELS 3 Zrotation Yrotation Xrotation
							JOINT LeftForeArm
							{
								OFFSET 10.33880 -0.01036 -0.55515
								CHANNELS 3 Zrotation Yrotation Xrotation
								JOINT LeftHand
								{
									OFFSET 8.69677 0.07543 0.40060
									CHANNELS 3 Zrotation Yrotation Xrotation
									End Site
									{
										OFFSET 5.28377 -0.21905 0.59205
									}
								}
							}
						}
					}
				}
				JOINT RightShoulderDummy
				{
					OFFSET 0 0 0
					CHANNELS 3 Zrotation Yrotation Xrotation
					JOINT RightShoulder
					{
						OFFSET -3.53937 -0.14262 -0.08660
						CHANNELS 3 Zrotation Yrotation Xrotation
						JOINT RightArm
						{
							OFFSET -4.04833 -0.00133 0.12683
							CHANNELS 3 Zrotation Yrotation Xrotation
							JOINT RightForeArm
							{
								OFFSET -10.37987 -0.01039 -0.55511
								CHANNELS 3 Zrotation Yrotation Xrotation
								JOINT RightHand
								{
									OFFSET -8.67398 0.07538 0.40058
									CHANNELS 3 Zrotation Yrotation Xrotation
									End Site
									{
										OFFSET -5.24810 -0.21916 0.59204
									}
								}
							}
						}
					}
				}
			}
		}
	}
	JOINT LeftUpLegDummy
	{
		OFFSET 0 0 0
		CHANNELS 3 Zrotation Yrotation Xrotation
		JOINT LeftUpLeg
		{
			OFFSET 3.52197 -3.41223 0.04002
			CHANNELS 3 Zrotation Yrotation Xrotation
			JOINT LeftLeg
			{
				OFFSET -0.00012 -17.42399 1.60337
				CHANNELS 3 Zrotation Yrotation Xrotation
				JOINT LeftFoot
				{
					OFFSET -0.09972 -16.50070 -1.63802
					CHANNELS 3 Zrotation Yrotation Xrotation
					JOINT LeftToes
					{
						OFFSET -0.01575 -1.73823 3.34611
						CHANNELS 3 Zrotation Yrotation Xrotation
						End Site
						{
							OFFSET 0.03150 -0.01868 3.85031
						}
					}
				}
			}
		}
	}
}
MOTION
Frames: 19
Frame Time: 0.033333
62.2546 38.9406 5.7469 178.4800 59.8008 175.9670 0.0000 0.0000 0.0000 0.8929 -6.1367 1.2350 -4.0559 -19.8804 11.0309 2.8743 -0.0937 -8.5946 0.0000 0.0000 -0.0000 0.0000 0.0000 0.0000 0.6413 1.5206 -12.9045 12.2522 -2.5943 20.9884 0.0000 0.0000 0.0000 0.1561 -22.5046 -7.3670 0.0000 0.0000 0.0000 -17.9587 -1.0611 1.1218 -64.2783 -8.7071 -13.9230 -13.8581 0.2363 43.0098 13.3683 -3.3074 -0.9753 0.0000 0.0000 0.0000 22.3730 0.6983 1.2075 48.4245 10.2771 -16.8677 10.4479 6.2191 29.1872 -6.5740 0.8389 -0.3445 0.0000 0.0000 0.0000 1.3583 23.0218 -7.3489 5.9187 16.9689 15.2320 -1.2491 0.1085 -3.1727 -0.0000 -0.0000 -0.0000
62.2758 38.9388 5.7481 178.4220 59.6895 175.9450 0.0000 0.0000 0.0000 0.8791 -6.1592 1.2292 -4.0843 -19.9683 11.0653 2.7991 -0.0897 -8.6271 0.0000 0.0000 -0.0000 0.0000 0.0000 0.0000 0.5763 1.5646 -12.8825 12.2728 -2.5247 20.8260 0.0000 0.0000 0.0000 -0.0831 -22.4384 -7.1480 0.0000 0.0000 0.0000 -18.1804 -1.0584 1.1305 -63.9334 -8.6391 -14.6409 -13.6863 0.2900 42.5997 13.1230 -3.0335 -0.9278 0.0000 0.0000 0.0000 22.1248 0.7284 1.2047 48.5160 10.2943 -17.0501 10.3796 6.1604 29.3785 -6.3621 0.8486 -0.3336 0.0000 0.0000 0.0000 1.3283 22.9445 -7.3620 5.9072 16.9355 15.2173 -1.2317 0.1076 -3.1685 -0.0000 -0.0000 -0.0000
62.2932 38.9376 5.7484 178.4400 59.5080 175.9600 0.0000 0.0000 0.0000 0.8906 -6.1744 1.2899 -4.0891 -20.1332 11.0402 2.7913 -0.0901 -8.6407 0.0000 0.0000 -0.0000 0.0000 0.0000 0.0000 0.5746 1.5442 -12.8171 12.2064 -2.5010 20.6299 0.0000 0.0000 0.0000 -0.2992 -22.5308 -6.9693 0.0000 0.0000 0.0000 -18.2730 -1.0833 1.1406 -63.6702 -8.7462 -15.1548 -13.5569 0.3379 42.0528 12.9974 -2.8460 -0.8989 0.0000 0.0000 0.0000 21.9675 0.6953 1.1892 48.5270 10.4388 -16.9373 10.3780 6.2331 29.4620 -6.2747 0.8270 -0.3279 0.0000 0.0000 0.0000 1.3448 22.8574 -7.3603 5.8626 16.8234 15.2102 -1.1895 0.1051 -3.1523 -0.0000 -0.0000 -0.0000
62.3098 38.9367 5.7454 178.4780 59.3465 175.9730 0.0000 0.0000 0.0000 0.9155 -6.1683 1.3615 -4.1181 -20.2974 11.0295 2.8398 -0.0940 -8.6542 0.0000 0.0000 -0.0000 0.0000 0.0000 0.0000 0.6546 1.5216 -12.7889 12.0479 -2.4631 20.5121 0.0000 0.0000 0.0000 -0.4540 -22.7511 -6.7536 0.0000 0.0000 0.0000 -18.2512 -1.1435 1.1546 -63.4800 -8.9717 -15.3382 -13.5049 0.2612 41.5081 13.2000 -2.7851 -0.9069 0.0000 0.0000 0.0000 21.8557 0.6678 1.1771 48.5188 10.6107 -16.5162 10.4357 6.5218 29.1223 -6.3648 0.8172 -0.3323 0.0000 0.0000 0.0000 1.3730 22.8315 -7.3452 5.8169 16.6838 15.2144 -1.1237 0.1010 -3.1309 -0.0000 -0.0000 -0.0000
62.3304 38.9364 5.7378 178.4120 59.2810 175.8820 0.0000 0.0000 0.0000 0.8980 -6.1600 1.4248 -4.1865 -20.3667 11.0625 2.8765 -0.0966 -8.6867 0.0000 0.0000 -0.0000 0.0000 0.0000 0.0000 0.7153 1.5331 -12.8273 11.8899 -2.3954 20.5154 0.0000 0.0000 0.0000 -0.6719 -22.8451 -6.4635 0.0000 0.0000 0.0000 -18.2427 -1.1714 1.1612 -63.3306 -9.2090 -15.2716 -13.4579 -0.1734 41.2379 13.5033 -2.9665 -0.9484 0.0000 0.0000 0.0000 21.6946 0.7206 1.1855 48.5604 10.7788 -15.9178 10.5094 6.9242 28.4263 -6.5969 0.8668 -0.3471 0.0000 0.0000 0.0000 1.3711 22.8761 -7.2665 5.7596 16.6106 15.1769 -1.0455 0.0962 -3.0923 -0.0000 -0.0000 -0.0000
62.3527 38.9381 5.7285 178.2460 59.2204 175.7260 0.0000 0.0000 0.0000 0.8427 -6.1533 1.4669 -4.2861 -20.4253 11.0970 2.8953 -0.0974 -8.7205 0.0000 0.0000 -0.0000 0.0000 0.0000 0.0000 0.7579 1.5391 -12.8671 11.6912 -2.3118 20.4966 0.0000 0.0000 0.0000 -0.9132 -22.7563 -6.2135 0.0000 0.0000 0.0000 -18.2379 -1.1375 1.1525 -63.2487 -9.3514 -14.8615 -13.3988 -1.1545 41.0530 13.5283 -3.3163 -0.9883 0.0000 0.0000 0.0000 21.5441 0.8236 1.2083 48.6280 10.9376 -15.2484 10.5649 7.3469 27.7228 -6.7586 0.9518 -0.3601 0.0000 0.0000 0.0000 1.3157 22.8657 -7.1839 5.6987 16.6171 15.1017 -1.0019 0.0935 -3.0277 -0.0000 -0.0000 -0.0000
62.3735 38.9404 5.7181 178.0840 59.0936 175.6150 0.0000 0.0000 0.0000 0.7955 -6.1387 1.4779 -4.4015 -20.5497 11.1169 2.9429 -0.0990 -8.7418 0.0000 0.0000 -0.0000 0.0000 0.0000 0.0000 0.8796 1.5300 -12.8525 11.3797 -2.1980 20.3413 0.0000 0.0000 0.0000 -1.0149 -22.6698 -6.1179 0.0000 0.0000 0.0000 -18.1709 -1.1045 1.1415 -63.2124 -9.4844 -13.9081 -13.4051 -2.3657 40.2844 13.3529 -3.5532 -1.0006 0.0000 0.0000 0.0000 21.5015 0.8931 1.2259 48.6607 11.0322 -14.4510 10.5737 7.8767 27.0368 -6.6356 0.9821 -0.3549 0.0000 0.0000 0.0000 1.2287 22.7797 -7.1645 5.6488 16.6197 15.0350 -1.0123 0.0942 -2.9679 -0.0000 -0.0000 -0.0000
62.3973 38.9426 5.7006 177.9430 59.0122 175.5110 0.0000 0.0000 0.0000 0.7424 -6.1386 1.4985 -4.4971 -20.6075 11.1553 3.0208 -0.1003 -8.7762 0.0000 0.0000 -0.0000 0.0000 0.0000 0.0000 1.0608 1.5660 -12.7939 11.0626 -2.0351 20.1253 0.0000 0.0000 0.0000 -0.9944 -22.6493 -6.1175 0.0000 0.0000 0.0000 -18.1203 -1.1227 1.1438 -63.1187 -9.7734 -12.6496 -13.5320 -3.2203 38.8150 13.4220 -3.5912 -1.0101 0.0000 0.0000 0.0000 21.5175 0.8889 1.2254 48.6502 11.0580 -13.5086 10.5264 8.5197 26.2239 -6.3814 0.9348 -0.3387 0.0000 0.0000 0.0000 1.1610 22.8222 -7.1143 5.5725 16.5332 14.9686 -1.0137 0.0944 -2.9486 -0.0000 -0.0000 -0.0000
62.4288 38.9460 5.6749 177.7550 59.0447 175.3130 0.0000 0.0000 0.0000 0.6327 -6.1871 1.5761 -4.5378 -20.4999 11.2083 3.0857 -0.1005 -8.8404 0.0000 0.0000 -0.0000 0.0000 0.0000 0.0000 1.1368 1.6516 -12.7137 10.9271 -1.8764 19.9377 0.0000 0.0000 0.0000 -1.0281 -22.5817 -6.0683 0.0000 0.0000 0.0000 -18.2171 -1.1556 1.1562 -62.9607 -10.1255 -11.3009 -13.7041 -3.8294 37.0907 13.8126 -3.6263 -1.0447 0.0000 0.0000 0.0000 21.4707 0.8331 1.2079 48.6512 11.1065 -12.6389 10.4727 9.0487 25.4708 -6.3717 0.9034 -0.3367 0.0000 0.0000 0.0000 1.1228 23.0989 -6.9445 5.4233 16.3377 14.8660 -0.9434 0.0900 -2.9465 -0.0000 -0.0000 -0.0000
62.4627 38.9512 5.6520 177.5320 59.0313 175.0820 0.0000 0.0000 0.0000 0.4910 -6.2660 1.6883 -4.5332 -20.4109 11.2040 3.1249 -0.0999 -8.8932 0.0000 0.0000 -0.0000 0.0000 0.0000 0.0000 1.0363 1.6933 -12.6157 10.9619 -1.8078 19.7259 0.0000 0.0000 0.0000 -1.1504 -22.4898 -5.9538 0.0000 0.0000 0.0000 -18.4132 -1.1658 1.1671 -62.8916 -10.2760 -9.4549 -13.7185 -4.9388 35.1506 14.0879 -3.7106 -1.0759 0.0000 0.0000 0.0000 21.3512 0.7902 1.1912 48.7243 11.2055 -12.0178 10.4656 9.3250 24.9604 -6.6385 0.9551 -0.3537 0.0000 0.0000 0.0000 1.0751 23.3920 -6.7701 5.2296 16.0734 14.7463 -0.8454 0.0838 -2.8989 -0.0000 -0.0000 -0.0000
62.4918 38.9571 5.6421 177.3680 58.8454 174.9580 0.0000 0.0000 0.0000 0.4002 -6.3151 1.7872 -4.5283 -20.5337 11.1062 3.1612 -0.1005 -8.8905 0.0000 0.0000 -0.0000 0.0000 0.0000 0.0000 0.9066 1.6488 -12.5303 10.9479 -1.8112 19.4734 0.0000 0.0000 0.0000 -1.2135 -22.5442 -5.9013 0.0000 0.0000 0.0000 -18.5106 -1.1868 1.1766 -63.0218 -10.2524 -7.0736 -13.4681 -6.5411 32.9778 14.0196 -3.7153 -1.0710 0.0000 0.0000 0.0000 21.2635 0.8249 1.1972 48.8623 11.2670 -11.5461 10.4852 9.4833 24.4720 -6.8599 1.0305 -0.3697 0.0000 0.0000 0.0000 1.0111 23.5063 -6.7255 5.0562 15.7943 14.6607 -0.8184 0.0822 -2.7892 -0.0000 -0.0000 -0.0000
62.5186 38.9628 5.6400 177.2940 58.6200 174.9300 0.0000 0.0000 0.0000 0.3827 -6.3138 1.8794 -4.5431 -20.7579 10.9647 3.1965 -0.1016 -8.8477 0.0000 0.0000 -0.0000 0.0000 0.0000 0.0000 0.9263 1.5964 -12.5180 10.7402 -1.7810 19.3341 0.0000 0.0000 0.0000 -1.1447 -22.7231 -5.9813 0.0000 0.0000 0.0000 -18.4072 -1.2453 1.1867 -63.2643 -10.3828 -5.3500 -13.2329 -7.5815 31.4770 13.9410 -3.7203 -1.0653 0.0000 0.0000 0.0000 21.2853 0.9256 1.2259 48.9833 11.2698 -11.1254 10.4969 9.6425 23.9147 -6.8825 1.0562 -0.3722 0.0000 0.0000 0.0000 0.9777 23.5944 -6.7424 4.9161 15.5121 14.6098 -0.8782 0.0862 -2.6553 -0.0000 -0.0000 -0.0000
62.5469 38.9667 5.6349 177.2450 58.4981 174.8900 0.0000 0.0000 0.0000 0.3809 -6.3036 1.9766 -4.5687 -20.8884 10.8705 3.2186 -0.1020 -8.8222 0.0000 0.0000 -0.0000 0.0000 0.0000 0.0000 1.0725 1.5909 -12.5873 10.4344 -1.6936 19.3952 0.0000 0.0000 0.0000 -1.0392 -22.7968 -6.1024 0.0000 0.0000 0.0000 -18.2087 -1.2945 1.1902 -63.4839 -10.7537 -4.7139 -13.2747 -7.6774 30.9711 14.1360 -3.8891 -1.1002 0.0000 0.0000 0.0000 21.3839 0.9943 1.2491 49.0389 11.3137 -10.8388 10.5018 9.7412 23.6791 -6.8127 1.0515 -0.3681 0.0000 0.0000 0.0000 0.9763 23.8635 -6.7243 4.7987 15.1833 14.5892 -0.9575 0.0915 -2.5360 -0.0000 -0.0000 -0.0000
62.5732 38.9674 5.6239 177.1780 58.3983 174.8310 0.0000 0.0000 0.0000 0.3488 -6.3255 2.0424 -4.5970 -20.9557 10.8575 3.2397 -0.1025 -8.8397 0.0000 0.0000 -0.0000 0.0000 0.0000 0.0000 1.1848 1.5849 -12.6711 10.2192 -1.6376 19.5101 0.0000 0.0000 0.0000 -0.9862 -22.6955 -6.1495 0.0000 0.0000 0.0000 -18.0992 -1.3004 1.1868 -63.6502 -11.0357 -3.8131 -13.3673 -7.7917 30.1875 14.3252 -4.0297 -1.1318 0.0000 0.0000 0.0000 21.4610 0.9679 1.2450 49.0869 11.4230 -10.7238 10.4996 9.7511 23.9501 -6.6920 1.0442 -0.3610 0.0000 0.0000 0.0000 0.9372 24.1931 -6.7362 4.7290 14.8052 14.6288 -1.0167 0.0955 -2.4421 -0.0000 -0.0000 -0.0000
62.5929 38.9664 5.6119 177.1040 58.2288 174.8000 0.0000 0.0000 0.0000 0.2949 -6.3768 2.0604 -4.6165 -21.0602 10.8676 3.2754 -0.1041 -8.8687 0.0000 0.0000 -0.0000 0.0000 0.0000 0.0000 1.2105 1.5502 -12.7145 10.1453 -1.6463 19.5339 0.0000 0.0000 0.0000 -0.9602 -22.5891 -6.1290 0.0000 0.0000 0.0000 -18.1554 -1.3098 1.1916 -63.7740 -10.9881 -2.0127 -13.2214 -8.5660 28.5474 14.1413 -3.8746 -1.0990 0.0000 0.0000 0.0000 21.4565 0.9043 1.2271 49.2022 11.4878 -10.6527 10.4938 9.7508 24.2381 -6.5383 0.9905 -0.3500 0.0000 0.0000 0.0000 0.8344 24.3319 -6.8330 4.7282 14.4950 14.7125 -1.0673 0.0990 -2.3687 -0.0000 -0.0000 -0.0000
62.6085 38.9655 5.6018 177.0210 58.0797 174.7760 0.0000 0.0000 0.0000 0.2334 -6.4368 2.0598 -4.6191 -21.1410 10.8655 3.3176 -0.1064 -8.8880 0.0000 0.0000 -0.0000 0.0000 0.0000 0.0000 1.2448 1.5333 -12.7305 10.0924 -1.6404 19.5109 0.0000 0.0000 0.0000 -0.9237 -22.5639 -6.0975 0.0000 0.0000 0.0000 -18.2921 -1.3501 1.2077 -63.8535 -10.7707 -0.6293 -12.9692 -9.3223 27.3770 13.7692 -3.6337 -1.0421 0.0000 0.0000 0.0000 21.4113 0.8944 1.2225 49.3563 11.4558 -10.5661 10.5288 9.7305 24.1106 -6.5571 0.8791 -0.3456 0.0000 0.0000 0.0000 0.7246 24.2775 -6.9252 4.7691 14.3686 14.7735 -1.1136 0.1022 -2.3180 -0.0000 -0.0000 -0.0000
62.6235 38.9658 5.5949 176.9150 58.0400 174.7150 0.0000 0.0000 0.0000 0.1624 -6.4962 2.0559 -4.6040 -21.1166 10.8672 3.3527 -0.1083 -8.9064 0.0000 0.0000 -0.0000 0.0000 0.0000 0.0000 1.3532 1.5503 -12.7330 9.9450 -1.5735 19.5017 0.0000 0.0000 0.0000 -0.9213 -22.5191 -6.0156 0.0000 0.0000 0.0000 -18.3832 -1.3639 1.2152 -63.9055 -10.5959 -0.6978 -12.9286 -9.3524 27.6703 13.6555 -3.6564 -1.0356 0.0000 0.0000 0.0000 21.4062 0.9405 1.2351 49.4681 11.4023 -10.6193 10.6213 9.5806 23.9548 -6.8575 0.8283 -0.3592 0.0000 0.0000 0.0000 0.6536 24.1749 -6.9332 4.8017 14.4181 14.7669 -1.1441 0.1045 -2.2864 -0.0000 -0.0000 -0.0000
62.6385 38.9686 5.5917 176.7840 58.0688 174.6220 0.0000 0.0000 0.0000 0.0804 -6.5484 2.0586 -4.5702 -21.0316 10.8576 3.3824 -0.1101 -8.9219 0.0000 0.0000 -0.0000 0.0000 0.0000 0.0000 1.4771 1.5660 -12.7022 9.7279 -1.4867 19.4585 0.0000 0.0000 0.0000 -1.0012 -22.4320 -5.8072 0.0000 0.0000 0.0000 -18.4100 -1.3262 1.2070 -63.9366 -10.4212 -1.4765 -13.0665 -8.9324 28.5701 13.7909 -3.7994 -1.0623 0.0000 0.0000 0.0000 21.4427 0.9811 1.2479 49.5320 11.3654 -10.9372 10.6962 9.3158 24.4013 -7.1588 0.9348 -0.3811 0.0000 0.0000 0.0000 0.6222 24.0328 -6.8659 4.7911 14.6056 14.6854 -1.1701 0.1066 -2.2535 -0.0000 -0.0000 -0.0000
62.6566 38.9765 5.5907 176.6190 58.1548 174.4840 0.0000 0.0000 0.0000 -0.0090 -6.5782 2.1067 -4.5156 -20.9148 10.7819 3.4074 -0.1117 -8.9153 0.0000 0.0000 -0.0000 0.0000 0.0000 0.0000 1.5446 1.5898 -12.6599 9.5320 -1.3996 19.4074 0.0000 0.0000 0.0000 -1.0979 -22.4308 -5.5499 0.0000 0.0000 0.0000 -18.4379 -1.3053 1.2031 -63.8829 -10.1852 -2.3244 -13.2483 -8.4222 29.4719 13.8204 -3.8030 -1.0650 0.0000 0.0000 0.0000 21.4563 0.9900 1.2509 49.5973 11.2910 -11.3060 10.6901 9.1265 25.2218 -7.1635 1.0976 -0.3900 0.0000 0.0000 0.0000 0.6404 23.7917 -6.7045 4.7272 14.9644 14.5249 -1.2104 0.1096 -2.2017 -0.0000 -0.0000 -0.0000
